<?xml version="1.0" encoding="UTF-8"?>
<svg xmlns="http://www.w3.org/2000/svg" version="1.1" width="1920" height="1080" viewBox="0 0 1920 1080"><title>DriveDeck Tag- und Nachtmodus</title><desc>1920 mal 1080 Vergleich der hellen und dunklen Automotive-Darstellung samt Helligkeitsregler.</desc><defs><filter id="s"><feDropShadow dx="0" dy="12" stdDeviation="18" flood-opacity=".28"/></filter><linearGradient id="night" x2="1" y2="1"><stop stop-color="#061014"/><stop offset="1" stop-color="#10242b"/></linearGradient><linearGradient id="day" x2="1" y2="1"><stop stop-color="#e9f6f4"/><stop offset="1" stop-color="#cfe7e3"/></linearGradient></defs><rect width="960" height="1080" fill="url(#day)"/><rect x="960" width="960" height="1080" fill="url(#night)"/><g font-family="sans-serif"><text x="64" y="90" font-size="48" font-weight="700" fill="#12322f">TAG · 07:00–18:59</text><text x="1024" y="90" font-size="48" font-weight="700" fill="#f2f7f7">NACHT · 19:00–06:59</text><text x="64" y="140" font-size="24" fill="#416762">Hohe Lesbarkeit bei Tageslicht</text><text x="1024" y="140" font-size="24" fill="#93aeb0">Reduzierte Blendung bei Dunkelheit</text><g filter="url(#s)"><rect x="64" y="190" width="832" height="270" rx="36" fill="#ffffff"/><rect x="1024" y="190" width="832" height="270" rx="36" fill="#172127"/><circle cx="142" cy="268" r="43" fill="#00766b"/><path d="M142 238v60M112 268h60M121 247l42 42M163 247l-42 42" stroke="#fff" stroke-width="6"/><circle cx="1102" cy="268" r="43" fill="#21443f"/><path d="M1121 238c-28 7-35 45-8 61-37 3-55-42-25-65 10-7 22-8 33-4z" fill="#47d7c8"/><text x="112" y="365" font-size="34" font-weight="700" fill="#12322f">Dashboard · Bern</text><text x="1072" y="365" font-size="34" font-weight="700" fill="#f2f7f7">Dashboard · Bern</text><text x="112" y="414" font-size="24" fill="#416762">83 km/h · GPS verbunden</text><text x="1072" y="414" font-size="24" fill="#93aeb0">83 km/h · GPS verbunden</text><rect x="64" y="510" width="832" height="330" rx="36" fill="#ffffff"/><rect x="1024" y="510" width="832" height="330" rx="36" fill="#172127"/></g><text x="112" y="580" font-size="31" font-weight="700" fill="#12322f">Darstellung</text><text x="1072" y="580" font-size="31" font-weight="700" fill="#f2f7f7">Darstellung</text><g font-size="23" text-anchor="middle"><rect x="112" y="620" width="150" height="64" rx="22" fill="#d4ebe7"/><text x="187" y="661" fill="#31544f">Nacht</text><rect x="278" y="620" width="150" height="64" rx="22" fill="#00766b"/><text x="353" y="661" fill="#fff">Tag</text><rect x="444" y="620" width="150" height="64" rx="22" fill="#d4ebe7"/><text x="519" y="661" fill="#31544f">Auto</text><rect x="1072" y="620" width="150" height="64" rx="22" fill="#21443f"/><text x="1147" y="661" fill="#93aeb0">Nacht</text><rect x="1238" y="620" width="150" height="64" rx="22" fill="#26383d"/><text x="1313" y="661" fill="#93aeb0">Tag</text><rect x="1404" y="620" width="150" height="64" rx="22" fill="#47d7c8"/><text x="1479" y="661" fill="#00201d">Auto</text></g><text x="112" y="756" font-size="25" fill="#31544f">UI-Helligkeit</text><text x="742" y="756" font-size="25" fill="#31544f">85 %</text><rect x="112" y="782" width="680" height="10" rx="5" fill="#aacbc5"/><rect x="112" y="782" width="578" height="10" rx="5" fill="#00766b"/><circle cx="690" cy="787" r="20" fill="#00766b"/><text x="1072" y="756" font-size="25" fill="#93aeb0">UI-Helligkeit</text><text x="1702" y="756" font-size="25" fill="#93aeb0">55 %</text><rect x="1072" y="782" width="680" height="10" rx="5" fill="#405257"/><rect x="1072" y="782" width="374" height="10" rx="5" fill="#47d7c8"/><circle cx="1446" cy="787" r="20" fill="#47d7c8"/><rect y="930" width="1920" height="150" fill="#101c21"/><text x="960" y="992" text-anchor="middle" fill="#f2f7f7" font-size="27">Automatischer Wechsel · manuell übersteuerbar · Helligkeit persistent</text><text x="960" y="1037" text-anchor="middle" fill="#93aeb0" font-size="21">DriveDeck Automotive Design System</text></g></svg>
